<svg xmlns="http://www.w3.org/2000/svg" width="337" height="254" viewBox="0 0 337 254">
  <g id="Group_4889" data-name="Group 4889" transform="translate(-712 -176)">
    <g id="Group_4883" data-name="Group 4883" transform="translate(667.604 105.146)">
      <path id="Path_3802" data-name="Path 3802" d="M364.226,273.431c-1.363,7.887-3.223,15.667-5.29,23.4-1.914,7.156-3.6,14.557-6.311,21.464-3.935,10.033-12.814,17.464-16.51,27.491.519-.19,1.043-.384,1.567-.583a22.74,22.74,0,0,0,4.914-3.206,45.893,45.893,0,0,0,5.958-4.864,49.607,49.607,0,0,0,4.673-5.78,118.129,118.129,0,0,0,7.542-12.946c.519-.988.942-2.022,1.44-3.019a39.227,39.227,0,0,0,1.778-5.725c.983-3.541,1.875-7.108,2.826-10.658,2.068-7.729,3.927-15.51,5.289-23.4C372.993,270.46,365.121,268.251,364.226,273.431Z" transform="translate(-74.943 -69.408)" fill="#e0e0e0"/>
      <path id="Path_3803" data-name="Path 3803" d="M219.618,450.093a3.63,3.63,0,0,0-2.545-.794c-3.472.29-6.876,1.092-10.365,1.349a59.277,59.277,0,0,1-11.14-.149,27.337,27.337,0,0,1-8.534-2.325c-.765-.361-6.115-3.869-6.715-1.821a15.572,15.572,0,0,0-.349,3.973c-.086,3.267,3.415,5.338,6.08,6.38,9.594,3.749,20.342.586,30.106-.875a7.757,7.757,0,0,0,3.479-1.1C221.562,453.329,221.054,451.232,219.618,450.093Z" transform="translate(-16.931 -134.512)" fill="#e0e0e0"/>
      <path id="Path_3804" data-name="Path 3804" d="M309.459,431.385c-.011-.241-.033-.481-.059-.718a61.763,61.763,0,0,0-2.178-9.325c-.805-2.991-1.409-6.049-2.12-9.066a3.866,3.866,0,0,0-.788-1.832,1.34,1.34,0,0,0-1.771-.232c-.895,1.13-1.741,2.3-2.729,3.354a33.7,33.7,0,0,1-5.66,4.34c-4.359,2.957-8.031,6.8-12.7,9.329a6.208,6.208,0,0,0-2.13,1.456c-.634.874-.18,1.376-.105,2.386a15.718,15.718,0,0,0,.545,3.244c.525,1.8,1.265,3.531,1.739,5.347a.9.9,0,0,0,1.133.837,66.861,66.861,0,0,0,14.378-2.239c2.381-.633,4.729-1.385,7.043-2.23,1.707-.623,4.108-.818,5.055-2.629A3.922,3.922,0,0,0,309.459,431.385Z" transform="translate(-53.72 -121.232)" fill="#e0e0e0"/>
      <path id="Path_3805" data-name="Path 3805" d="M286.479,285.894a29.325,29.325,0,0,0-5.228-.726c-4.957-.484-12.4-1.2-16.309,2.645-2.386,2.349-2.849,5.851-4.253,8.757-1.633,3.381-3.316,6.757-5.113,10.057a168.81,168.81,0,0,1-12.947,20.136q-.924,1.239-1.869,2.461-1.1,1.424-2.259,2.836a103.6,103.6,0,0,1-11.492,12.4c-4.092,3.678-10.32,7.627-16.075,6.774-2.488-.368-5.2-1.9-6.265-4.257a15.183,15.183,0,0,1-.97-3.728c-1.251-7.3-2.554-14.461-4.379-21.638q-2.793-10.986-5.588-21.971a3.2,3.2,0,0,0-3.135-2.36,1.113,1.113,0,0,0-.627-.243c-4.713-.143-9.59,3.738-12.913,6.716a105.3,105.3,0,0,0-11.706,11.9c-9.289,11.46-12.28,25.818-9.362,40.19a35.925,35.925,0,0,0,5.06,12.793,40.19,40.19,0,0,0,16.518,14.145c6.716,2.93,14.193,3.875,21.469,3.817q2.627-.022,5.249-.222a79.186,79.186,0,0,0,21.544-4.67c13.143-4.874,23.831-13.39,32.484-24.355,3.936-4.988,7.464-10.266,10.886-15.618q.555-.869,1.111-1.738a111.449,111.449,0,0,0,11.24-22.533c1.566-4.641,3.014-9.32,4.445-14q1.054-3.451,2.106-6.9a22.37,22.37,0,0,1,.856-2.166,11.06,11.06,0,0,0,1.172-3.968C290.131,287.7,288.53,286.491,286.479,285.894Z" transform="translate(-7.623 -74.721)" fill="#e0e0e0"/>
      <path id="Path_3806" data-name="Path 3806" d="M280.986,307.684a38.45,38.45,0,0,0-8.9-2.7c-2.751-.485-6.708-1.189-9.437-.287-1.611.533-1.259,1.8-1.277,3.5a39.84,39.84,0,0,0,.339,5.327c.659,5.3,1.422,10.584,2.135,15.876.36,2.674.708,5.35,1.023,8.031a44.954,44.954,0,0,1,.585,7.309c-.027.544-.192,2.176.735,2.107,1.061-.079,2.212-1.233,2.965-1.884a11.241,11.241,0,0,0,1.947-2.024c.41-.59.73-1.235,1.117-1.839,1.174-1.833,2.751-3.356,4.077-5.071a72.886,72.886,0,0,0,4.3-6.263c2.685-4.345,5.006-8.9,7.275-13.474q.917-1.847,1.83-3.7a83.666,83.666,0,0,0-8.722-4.908" transform="translate(-47.168 -81.961)" fill="#e0e0e0"/>
      <path id="Path_3807" data-name="Path 3807" d="M233.956,226.1a57.485,57.485,0,0,1-1.116,6.507c-.48,1.589-1.176,2.863-2.91,3.313a8.854,8.854,0,0,1-3.858-.1,14.292,14.292,0,0,0-3.855-.427c-2.034.176-3.857,1.078-5.918,1.141a13.08,13.08,0,0,0-5.977,1.3c-4.2,2.23-7.217,8.351-12.341,8.6a8.8,8.8,0,0,1-2.278-.251c-4.115-.887-7.635-2.983-11.212-5.1a30.258,30.258,0,0,1-8.6-7.106c-1.243-1.537-2.877-4.628-5.136-4.208a.913.913,0,0,0-.887.464c-.787,1.315.063,3.165.576,4.423a52.668,52.668,0,0,0,6.412,11.726,61.773,61.773,0,0,0,5.668,7.138,37.247,37.247,0,0,0,7.094,5.333c6.013,3.582,13.292,6.66,20.4,6.669a33.357,33.357,0,0,0,7.447-.831,27.429,27.429,0,0,0,6.877-2.1,10.176,10.176,0,0,0,4.739-4.8,23.663,23.663,0,0,0,1.33-4.976q.95-4.9,2.1-9.751c.367-1.554.708-3.053.926-4.627a34.839,34.839,0,0,1,.913-4.942,13.938,13.938,0,0,0,.725-3.229,30.138,30.138,0,0,0-.057-4.05c-.041-.583-.947-.755-1.06-.123m-8.4,22.628a9.965,9.965,0,0,1-4.366,3.081c-1.693.607-3.313.541-4.764,1.765-1.63,1.374-2.941,2.787-5.163,3.181a5.911,5.911,0,0,1-4.886-1.248c-2.109-1.852-2.295-5.253-1.009-7.748a12.986,12.986,0,0,1,6.262-5.4,19.7,19.7,0,0,1,7.945-2.016,8.483,8.483,0,0,1,5.161,1.334,4.889,4.889,0,0,1,.848,7.072" transform="translate(-13.062 -52.773)" fill="#e0e0e0"/>
      <path id="Path_3808" data-name="Path 3808" d="M235.384,198.647c-.236,6.981,4.514,13.548,8.447,18.9.771,1.05,2.1,2.511,2.222,3.859.178,1.983-2.027,2.647-3.553,3.062a62.454,62.454,0,0,1-7.109,1.171c-.784.119-.6,1.444.188,1.389,3.645-.252,12.773.047,12.454-5.6-.17-3.019-3.035-5.593-4.8-7.784-3.635-4.506-5.216-9.785-7.3-15.071a.281.281,0,0,0-.55.074" transform="translate(-37.334 -42.622)"/>
      <path id="Path_3809" data-name="Path 3809" d="M189.06,203.589a35.641,35.641,0,0,1,8.355-4.184,58,58,0,0,1,8.664-2.259.89.89,0,0,0,.528-1.3c-2.117-3.57-6.654-1.4-9.6-.146-4.172,1.779-7.266,3.015-8.272,7.639a.223.223,0,0,0,.324.249" transform="translate(-20.186 -40.955)"/>
      <path id="Path_3810" data-name="Path 3810" d="M238.808,185.916c2.577-.008,5-1.481,7.59-1.7,2.714-.233,5.257.319,7.865-.512a.7.7,0,0,0,.414-1.018c-3.41-5.388-14.026-2.547-16.026,3.026a.164.164,0,0,0,.156.2" transform="translate(-38.73 -35.721)"/>
      <path id="Path_3811" data-name="Path 3811" d="M231.874,258.059c4.675.426,10.88-.388,13.827-4.367a.356.356,0,0,0-.4-.519c-4.387,1.684-9.089,2.612-13.518,4.221a.341.341,0,0,0,.09.666" transform="translate(-36.092 -62.972)"/>
      <path id="Path_3812" data-name="Path 3812" d="M238.268,264.039c2.38.935,7.627.405,7.9-2.872.03-.352-.377-.494-.643-.37-1.222.574-2.178,1.506-3.5,1.912-1.224.375-2.52.417-3.751.733a.312.312,0,0,0,0,.6" transform="translate(-38.509 -65.796)"/>
      <path id="Path_3813" data-name="Path 3813" d="M207.689,133.369a31.01,31.01,0,0,0-7.324-6.466c-3.107-2.193-4.8-5.615-7.791-7.9-5.615-4.277-13.019-4.037-19.6-2.728-2.847.567-5.95,1.26-8.081,3.389-1.925,1.924-2.665,4.839-4.5,6.8a26.125,26.125,0,0,0-10.65,5.752,19.085,19.085,0,0,0-4.864,6.815,14.174,14.174,0,0,0-.6,1.848,25.248,25.248,0,0,1-3.52,5.021c-1.483,1.494-3.452,2.351-4.916,3.834-2.557,2.591-1.222,5.431.134,8.25,1.192,2.476.867,3.2-.236,5.592a13.1,13.1,0,0,0-1,2.5,9.874,9.874,0,0,0,.026,4.558,9.433,9.433,0,0,0,2.631,4.631c1.772,1.689,4.535,2.356,5.59,4.715-2.851,1.78-2.779,5.851-2.144,8.737a16.939,16.939,0,0,0,2.594,6.3c1.806,2.46,4.71,4.115,6.989,6.115,3.831,3.361,6.969,7.2,12.078,3.355a.666.666,0,0,0-.511-1.211c-2.516.528-4.457.711-6.531-1.115-1.214-1.068-2.278-2.3-3.5-3.366-3.029-2.649-6.186-4.512-7.539-8.486-.661-1.941-1.633-4.834-.62-6.826,2.09-4.117,6.908,1.379,9.224,2.669a.528.528,0,0,0,.209.063,3.6,3.6,0,0,0,5-2.006c1.034-2.6-.248-6.62-.639-9.244-.864-5.79-2.626-11.516-1.275-17.374a24.9,24.9,0,0,1,2.662-6.994c1.756-2.938,4.193-3.606,7.475-3.528,5,.119,9.953,1.275,14.953,1.5,3.782.17,7.854-.356,11.008-2.619,2.992-2.146,4.563-5.577,6.525-8.638,2.767.723,7.083,6.01,7.852,7.137,1.573,2.307,2.129,5.641,4.312,7.424.428.349,1.611.226,1.654-.453C213.194,144.782,211.783,138.747,207.689,133.369Z" transform="translate(0 -11.808)"/>
      <path id="Path_3814" data-name="Path 3814" d="M270.968,248.159c-2.43,4.227-4.619,8.466-6.748,12.683a1.818,1.818,0,0,0-.887-.781,54.519,54.519,0,0,0-14.968-3.711c-4.342-.495-9.921-1.31-14.035.468-.288.124-.168.537.081.618a23.835,23.835,0,0,0,5.882.72,65.831,65.831,0,0,1,8.256,1.134,102.234,102.234,0,0,1,13.867,4.1,1.869,1.869,0,0,0,.473.1c-5.26,10.491-10.357,20.8-17.993,30.419-2.115,2.662-4.412,5.44-6.9,8.061-1-6.943-1.953-13.892-2.924-20.838-.56-4-1.027-8.018-1.574-12.022-.278-2.031-.576-4.06-.918-6.081a32.971,32.971,0,0,0-1.122-5.734c-.317-.858-1.373-1.747-2.3-1.141-1.38.9-2.092,2.432-3.565,3.37a16.979,16.979,0,0,1-7.157,2.28c-3.929.468-8.021.612-11.829-.636a11.34,11.34,0,0,1-2.324-.982c-.283-.9-.886-3.736-1.161-4.657a33.639,33.639,0,0,0-1.931-5.166,38.621,38.621,0,0,0,6.215,2.663c5.044,1.6,10.125,1.227,15.176-.149,4.009-1.095,9.945-2.264,12.36-6.057,2.522-3.964,3.416-9.484,4.345-14.006a87.491,87.491,0,0,0,1.952-16.467,53.858,53.858,0,0,0-1.992-15.532,51.832,51.832,0,0,0-2.062-6.335,17.833,17.833,0,0,0-1.518-2.777q-.438-.661-.929-1.285c-.156-.2-.828-1.281-1.137-1.129a.243.243,0,0,0-.107.13,1,1,0,0,0,.057.685c.251.756.5,1.514.748,2.27.4,1.195.815,2.383,1.217,3.575.491,1.451.932,2.916,1.292,4.4a61.2,61.2,0,0,1,1.662,13.786,70.193,70.193,0,0,1-1.642,14.991c-.88,4.218-1.577,8.769-3.076,12.817-1.76,4.751-6.623,5.8-11.033,7.1-4.749,1.4-9.559,2.015-14.39.631A61.6,61.6,0,0,1,184.281,236.1c-.222-.207-.627.066-.439.339a36.319,36.319,0,0,0,10.078,9.531c1.626,1.076,3.311,2.152,5.042,3.157a6.251,6.251,0,0,0,.1,1.11c.572,3.267,1.55,6.475,2.305,9.7q1.1,4.688,2.322,9.349c2.955,11.343,6.3,22.659,8.31,34.219.434,2.5.34,6.129,1.291,8.923a17.169,17.169,0,0,1-8.83-9.206c-.7-1.574-3.009-.211-2.314,1.353,3.276,7.379,9.951,12.936,18.4,11.8,9.285-1.246,16.931-9.327,22.832-15.97a131.845,131.845,0,0,0,16.982-24.727,123.83,123.83,0,0,0,11.341-27.219A.4.4,0,0,0,270.968,248.159Z" transform="translate(-18.352 -39.237)"/>
      <path id="Path_3815" data-name="Path 3815" d="M304.158,273.218c-1.1-1.363-2.081-.321-2.66.879a6.332,6.332,0,0,0-.49,1.416c-.581,2.885-.892,5.832-1.447,8.726-.931,4.862-2.074,9.7-3.416,14.463a135,135,0,0,1-6.451,18.252c-2.63,5.922-5.533,11.68-9.694,16.719a41.228,41.228,0,0,1-14.755,11.667c.265-.429.539-.85.8-1.283,10.675-17.775,16.754-37.451,23.366-56.952.566-1.669-2.009-2.331-2.613-.72-11.386,30.357-22.315,65.9-51.135,84.313a86,86,0,0,1-26.788,11.343c-9.942,2.319-20.606,3.548-30.363-.073-8.688-3.225-16.243-8.2-20.842-16.4a48.918,48.918,0,0,1-5.754-22.019c-.742-19.817,8.638-37.7,24.325-49.625a.56.56,0,0,0-.565-.967c-15.819,8.515-26.165,25.166-27.858,42.955-1.527,16.043,3.031,34.309,16.851,43.971.264.185.535.358.8.537-.117,1.676-.033,3.379.018,5.057.069,2.334-.361,5.285,1.491,6.954a1.04,1.04,0,0,0,1.457,0c1.555-1.985.792-4.467.471-6.85-.148-1.094-.28-2.2-.458-3.306a46.989,46.989,0,0,0,26.8,6.248,86.09,86.09,0,0,0,12.24-1.811,34.187,34.187,0,0,0,1.09,3.916c.316.883,1.219.921,2.021,1.089a40.907,40.907,0,0,0,16.053-.3,28.581,28.581,0,0,0,3.046-.729,9.65,9.65,0,0,0,3.021-1.281c1.061-.838.4-2.631.084-3.673-.192-.622-.358-1.25-.505-1.882-.449-1.921-.744-3.876-1.143-5.808a86.325,86.325,0,0,0,26.375-21.861c.522,3.448,1.063,6.9,1.691,10.33,1.265,6.92,2.276,13.957,4.426,20.674a.663.663,0,0,0,1.278-.3c0-6.739-1.427-13.35-2.419-20-.488-3.277-1.022-6.548-1.51-9.826-.207-1.393-.177-3.144-.525-4.663q1.193-1.613,2.323-3.285a34,34,0,0,0,13.461-7.045,49.15,49.15,0,0,0,9.422-10.789c5.357-8.119,8.945-17.042,11.928-26.229a164.666,164.666,0,0,0,5.288-20.766c.356-1.916.706-3.834,1.019-5.758C304.133,277.151,305.117,274.414,304.158,273.218Z" transform="translate(-4.881 -70.187)"/>
      <path id="Path_3816" data-name="Path 3816" d="M360.851,165.38c-.028.091,13.583,2.514,13.49,4.819a.941.941,0,0,1-.443.662c-1.571,1.164-3.958.314-5.7.061q-3.611-.525-7.216-1.089c-1.332-.21-1.332-.262-1.723.953-.492,1.525-.968,3.056-1.508,4.762,1.946.47,3.775.884,5.588,1.357,1.946.508,3.879,1.072,5.818,1.609.722.2,1.465.343,2.16.611,1.621.625.727,2.144-.6,2.419a5.71,5.71,0,0,1-1.753,0,91.078,91.078,0,0,1-12.069-2.06,7.758,7.758,0,0,1-2.3-.85,3.268,3.268,0,0,1-1.384-3.69,131.978,131.978,0,0,1,4.973-15.273c.919-2.486,1.733-5.011,2.673-7.488.634-1.668,1.383-3.293,2.121-4.919.559-1.229-.107-.985-1.189-1.655a33.252,33.252,0,0,1-4.764-3.619c-3.992-3.834-2.848-9.987,1.158-13.4,3.8-3.237,8.511-2.6,13.049-1.752a25.041,25.041,0,0,1,8.18,2.938c4.125,2.444,7.518,7.106,4.834,11.875-2.466,4.382-8.009,6.463-12.833,6.05-1.765-.151-1.765-.151-3.519-.324-.851-.084-1.2.024-1.454.874-1.034,3.525-2.4,7.217-3.64,10.8C362.092,161.1,361.517,163.2,360.851,165.38Zm4.551-34.942a9.464,9.464,0,0,0-4.236,1.212,5.618,5.618,0,0,0-2.453,4.256c-.315,2.285,1.163,3.612,2.89,4.715a18.177,18.177,0,0,0,5.975,2.209,20.856,20.856,0,0,0,7.727.417,6.824,6.824,0,0,0,5.216-3.577,3.019,3.019,0,0,0,.065-3.124A8.154,8.154,0,0,0,376.9,133a25.847,25.847,0,0,0-7.726-2.418A18.815,18.815,0,0,0,365.4,130.438Z" transform="translate(-81.252 -15.788)" fill="#5289df"/>
      <path id="Path_3817" data-name="Path 3817" d="M346.141,110.185c-.168-.229-.354-.442-.48-.62q-.648-.923-1.318-1.829c-2.445-3.3-5.122-6.422-7.434-9.826-.517-.76-1.052-1.528-1.5-2.332a4.639,4.639,0,0,0-1.262-1.4,1.974,1.974,0,0,0-1.508-.4c-.641.256-.69,1.024-.488,1.664a8.231,8.231,0,0,0,.712,1.568,63.669,63.669,0,0,0,6.624,9.63c.882,1.042,1.8,2.057,2.775,3.013q.752.736,1.553,1.42c.428.363,1.038,1.077,1.635,1.067a1.212,1.212,0,0,0,1.037-.837A1.288,1.288,0,0,0,346.141,110.185Z" transform="translate(-73.431 -3.742)" fill="#5289df"/>
      <path id="Path_3818" data-name="Path 3818" d="M312.718,134.159a1.053,1.053,0,0,1,.453-.234,12.608,12.608,0,0,1,3.41-.344c1.2-.009,2.4.065,3.6.143,2.088.136,4.173.335,6.261.533a23.889,23.889,0,0,1,3.178.445,6.441,6.441,0,0,1,2.829,1.158,1.172,1.172,0,0,1,.426.876,1.188,1.188,0,0,1-.188.57,2.072,2.072,0,0,1-1.745.913,10.9,10.9,0,0,1-2.623-.019c-4.1-.571-8.188-1.227-12.276-1.877-.848-.134-1.68-.376-2.519-.569a1.169,1.169,0,0,1-.96-.912.717.717,0,0,1,.137-.669Z" transform="translate(-66.184 -18.548)" fill="#5289df"/>
      <path id="Path_3819" data-name="Path 3819" d="M374.6,96.99c-.111-2.065-.341-4.128-.493-6.191-.09-1.211-.172-2.423-.234-3.635a5.993,5.993,0,0,1,.513-2.662,1.118,1.118,0,0,1,2.138-.106,7.732,7.732,0,0,1,.943,2.9,35.7,35.7,0,0,1,.031,4.142c-.007,2.032-.008,4.063-.018,6.094a51.624,51.624,0,0,1-.236,6.022,1.9,1.9,0,0,1-.288.926.932.932,0,0,1-1.158.195,1.417,1.417,0,0,1-.624-1.149c-.306-2.115-.458-4.246-.566-6.379C374.606,97.1,374.6,97.044,374.6,96.99Z" transform="translate(-88.968)" fill="#5289df"/>
      <path id="Path_3820" data-name="Path 3820" d="M400.891,113.868c-.572.085-1.22-.3-1.1-.94a4.957,4.957,0,0,1,.53-1.449q3.827-6.875,7.691-13.73c.057-.1.112-.2.174-.3q1.077-1.689,2.217-1.054c.766.426.855,1.151.147,2.413-1.41,2.513-2.885,4.988-4.306,7.5-1.3,2.3-2.3,4.986-4.214,6.874a2.312,2.312,0,0,1-1.074.678C400.938,113.861,400.915,113.865,400.891,113.868Z" transform="translate(-98.595 -4.669)" fill="#5289df"/>
      <path id="Path_3821" data-name="Path 3821" d="M416.681,137.309a.5.5,0,0,1,.034-.413,1.777,1.777,0,0,1,1.361-.9c1.785-.449,3.584-.844,5.377-1.264,2.912-.682,5.822-1.371,8.735-2.048,1.063-.247,2.129-.486,3.2-.692.992-.19,1.569.116,1.779.879a1.439,1.439,0,0,1-.894,1.967c-1.822.522-3.677.955-5.542,1.293-2.662.483-5.336.91-8.021,1.24-1.545.19-3.1.186-4.644.294a2.306,2.306,0,0,1-1.138-.145A.5.5,0,0,1,416.681,137.309Z" transform="translate(-104.863 -17.938)" fill="#5289df"/>
      <path id="Path_3822" data-name="Path 3822" d="M391.938,241.536a2.754,2.754,0,0,0-2.281-.9h-.064a2.873,2.873,0,0,0-1.328-2.187c-1.655-1.2-3.978-1.039-5.9-.814a24.734,24.734,0,0,0-7.644,1.813c-1.557.749-3.119,1.464-4.672,2.143l-.285.023c-.35.029-.7.057-1.036.079a30.1,30.1,0,0,1-7.122-.372c-2.41-.416-4.785-1.031-7.214-1.342a27.092,27.092,0,0,0-15.07,2.085,18.921,18.921,0,0,0-7.121,6.045c-3.332,4.729-4.347,10.78-7.5,15.607-.263.02-.528.03-.791.056-.571.058-.787.918-.145,1.07,5.409,1.29,11.535,1.373,17.076,1.242,4.235-.1,11.235.009,14.554-2.941.456-.405.058-1.063-.458-1.107-2.295-.195-4.67.886-6.952,1.259a58.422,58.422,0,0,1-8.3.663c-3.989.078-8.068-.376-12.085-.361a4.909,4.909,0,0,0,.354-.652c1.378-2.933,2.388-6.026,3.727-8.977a21.472,21.472,0,0,1,5.553-7.874c3.844-3.173,9.114-4.094,14.093-3.873a57.34,57.34,0,0,1,7.906.938c1.689.314,3.367.7,5.072.9a41.2,41.2,0,0,0,6.754-.107l.248-.012c1.481-.074,3.326-.163,4.386.872.276.271.382.512.315.719-.15.464-1.1.878-1.891,1-.866.129-1.767.173-2.637.215-.833.041-1.7.082-2.542.2-2,.275-3.951.691-5.775,1.095l-.769.17c-4.135.92-8.411,1.872-12.65,1.232a1.293,1.293,0,0,0-1.465,1.117,1.022,1.022,0,0,0,.9,1.218c4.528.683,8.991-.167,13.546-1.176l.633-.141c2-.446,4.076-.908,6.138-1.178.745-.1,1.53-.127,2.288-.156a16.315,16.315,0,0,0,3.683-.421,3.708,3.708,0,0,0,2.934-2.906,27.275,27.275,0,0,1,10-2.736c.109-.006,1.055-.1,1.1.19s-.933.7-1.65.879a38.807,38.807,0,0,0-7.181,3.462c-.609.347-1.238.705-1.861,1.048-5.552,3.055-12.421,4.309-18.689,4.771-2.074.153-4.106.248-5.993.328a18.207,18.207,0,0,0-5.377.792,10.091,10.091,0,0,0-6.532,7.581,1.2,1.2,0,0,0,.4,1.16,1.345,1.345,0,0,0,.872.329,1.14,1.14,0,0,0,.377-.062,1.042,1.042,0,0,0,.687-.833,7.727,7.727,0,0,1,5.555-6.076c3.038-.823,6.407-.519,9.525-.785a59.469,59.469,0,0,0,15.956-3.282,51.246,51.246,0,0,0,4.957-2.178c1.6-.806,3.108-1.781,4.72-2.548,1.379-.656,2.845-1.13,4.2-1.841a5.03,5.03,0,0,0,2.633-2.689A1.891,1.891,0,0,0,391.938,241.536Zm-9.712.087q-1.261.387-2.492.864c-.537.207-1.375.51-2.085.817a6.191,6.191,0,0,0-2.691-1.314c.829-.434,1.223-.583,1.471-.7a20.267,20.267,0,0,1,4.889-1.733,10.135,10.135,0,0,1,5.166-.017,2.068,2.068,0,0,1,1.324,1.083A24.721,24.721,0,0,0,382.226,241.622Z" transform="translate(-70.207 -57.146)"/>
      <path id="Path_3823" data-name="Path 3823" d="M414.518,210.943a2.2,2.2,0,0,0-1.09-1.885c-1.292-.686-2.87-.017-3.915.837a15.189,15.189,0,0,0-1.8,1.939q-.884,1.02-1.865,1.951a27.885,27.885,0,0,1-2.55,2.146q-.668.5-1.366.954a15.912,15.912,0,0,1-1.482.753c-.454.233-1.094.561-1.624.776q.075-.124.143-.252c.733-1.383,1.091-3.787-.409-4.806-1.05-.713-2.716-.3-4.95,1.232a26.11,26.11,0,0,1-9.593,4c-1.885.4-3.465.74-5.046,1.133a12.49,12.49,0,0,0-7.711,5.379,2.48,2.48,0,0,0-.507,1.564.547.547,0,0,0,.259.455.676.676,0,0,0,.358.044,3.142,3.142,0,0,0,2.411-1.314,10.016,10.016,0,0,1,4.7-3.644,22.474,22.474,0,0,1,5.14-1.378,37.568,37.568,0,0,0,5.2-1.3,17.886,17.886,0,0,0,3.728-1.654c.507-.305.979-.656,1.436-.994a12.488,12.488,0,0,1,1.993-1.289l.069-.033c.35-.17.937-.456,1.245-.338a.336.336,0,0,1,.193.209,2.522,2.522,0,0,1-.449,1.921,8.013,8.013,0,0,1-3.177,2.525l-.088.049c-.562.311-.854.791-.727,1.194.1.332.5.7,1.8.569a23.05,23.05,0,0,0,9.6-3.659,19.26,19.26,0,0,0,4.1-3.627,12.326,12.326,0,0,0,.854-1.225,5.018,5.018,0,0,1,2.185-2.244c.326-.124.494-.11.539-.06.12.133.069.787-.561,2.049a18.75,18.75,0,0,1-3.933,5.431,27.551,27.551,0,0,1-7.12,4.5,1.8,1.8,0,0,0-.777,1.828.668.668,0,0,0,.494.635,1.262,1.262,0,0,0,.6-.078,13.716,13.716,0,0,0,2.528-1.164c.793-.441,1.613-.833,2.4-1.291a19.608,19.608,0,0,0,7.2-6.536A9.417,9.417,0,0,0,414.518,210.943Z" transform="translate(-87.808 -46.484)"/>
      <path id="Path_3824" data-name="Path 3824" d="M213.312,211.156c-.82-.934-3.117-2.4-5.137-1.5-.2.089-.371.317-.108.406a5.85,5.85,0,0,1,2.758,1.407,4.285,4.285,0,0,0-.526.726c-.66,1.417-.8,3.731.86,4.638a2.2,2.2,0,0,0,2.879-1.141A4.612,4.612,0,0,0,213.312,211.156Z" transform="translate(-27.32 -46.708)"/>
      <path id="Path_3825" data-name="Path 3825" d="M254.434,198.064c-.82-.934-3.117-2.4-5.137-1.5-.2.089-.371.317-.108.406a5.852,5.852,0,0,1,2.758,1.407,4.288,4.288,0,0,0-.526.726c-.661,1.417-.8,3.731.86,4.638a2.2,2.2,0,0,0,2.879-1.141A4.614,4.614,0,0,0,254.434,198.064Z" transform="translate(-42.598 -41.844)"/>
    </g>
    <rect id="Rectangle_4056" data-name="Rectangle 4056" width="337" height="254" transform="translate(712 176)" fill="none"/>
  </g>
</svg>
